<svg id="svg" version="1.1" xmlns="http://www.w3.org/2000/svg" xmlns:xlink="http://www.w3.org/1999/xlink" width="400" height="400" viewBox="0, 0, 400,400"><g id="svgg"><path id="path0" d="M304.600 2.593 C 299.956 3.491,292.250 5.702,289.774 6.848 C 288.879 7.261,287.944 7.600,287.695 7.600 C 287.258 7.600,279.497 10.613,274.600 12.685 C 272.176 13.711,271.478 14.024,265.931 16.584 C 264.243 17.363,262.589 18.000,262.255 18.000 C 261.921 18.000,261.531 18.188,261.389 18.417 C 261.248 18.646,257.866 20.457,253.875 22.440 C 249.884 24.424,246.524 26.178,246.409 26.339 C 246.294 26.499,244.400 27.520,242.200 28.606 C 240.000 29.692,236.490 31.589,234.400 32.820 C 231.077 34.778,226.996 37.063,223.000 39.202 C 221.800 39.845,218.765 41.733,215.000 44.180 C 213.900 44.895,212.190 45.963,211.200 46.555 C 210.210 47.146,208.410 48.247,207.200 49.001 C 205.990 49.754,204.766 50.290,204.479 50.190 C 204.193 50.091,204.058 50.169,204.179 50.365 C 204.300 50.561,203.742 51.144,202.938 51.661 C 202.135 52.177,200.351 53.320,198.973 54.200 C 193.067 57.973,182.834 65.016,175.333 70.470 C 166.505 76.888,165.856 77.308,165.388 76.886 C 165.214 76.729,165.186 76.800,165.325 77.044 C 165.558 77.452,155.589 85.505,153.200 86.838 C 152.650 87.145,151.210 88.313,150.000 89.434 C 148.790 90.554,147.241 91.905,146.557 92.436 C 140.315 97.277,127.081 108.798,121.966 113.845 C 120.517 115.274,119.085 116.389,118.784 116.322 C 118.483 116.255,118.228 116.390,118.218 116.623 C 118.193 117.209,103.591 131.824,103.154 131.700 C 102.959 131.645,102.845 131.825,102.900 132.100 C 102.955 132.375,102.775 132.555,102.500 132.500 C 102.225 132.445,102.045 132.565,102.100 132.766 C 102.263 133.363,93.948 142.415,93.494 142.134 C 93.253 141.986,93.196 142.069,93.358 142.332 C 93.521 142.596,92.308 144.354,90.489 146.494 C 87.030 150.561,79.732 159.613,78.831 160.954 C 78.518 161.419,76.358 164.680,74.031 168.200 C 71.704 171.720,69.710 174.690,69.600 174.800 C 69.490 174.910,69.079 175.630,68.686 176.400 C 68.293 177.170,67.531 178.520,66.992 179.400 C 66.454 180.280,66.010 181.331,66.007 181.736 C 66.003 182.141,65.658 182.771,65.240 183.136 C 64.821 183.501,63.593 185.510,62.511 187.600 C 61.428 189.690,60.351 191.760,60.117 192.200 C 59.883 192.640,59.292 193.990,58.804 195.200 C 58.317 196.410,57.691 197.940,57.413 198.600 C 56.136 201.638,54.874 205.115,54.619 206.295 C 54.464 207.008,54.172 207.694,53.969 207.819 C 53.766 207.945,53.600 208.396,53.600 208.822 C 53.600 209.248,53.264 210.633,52.854 211.898 C 52.010 214.505,50.775 219.200,49.794 223.536 C 46.254 239.178,46.078 265.585,49.415 280.400 C 49.737 281.830,50.108 283.900,50.238 285.000 C 50.369 286.100,50.716 287.540,51.009 288.200 C 51.302 288.860,51.636 290.120,51.751 291.000 C 51.943 292.465,53.486 297.250,54.072 298.200 C 54.208 298.420,54.525 299.410,54.776 300.400 C 55.028 301.390,55.400 302.560,55.605 303.000 C 55.809 303.440,56.536 305.240,57.220 307.000 C 59.044 311.690,63.777 321.582,65.831 325.000 C 66.360 325.880,67.020 327.050,67.297 327.600 C 68.016 329.030,71.121 333.504,71.598 333.799 C 71.819 333.935,72.000 334.308,72.000 334.627 C 72.000 335.257,74.951 339.372,78.539 343.745 C 79.778 345.255,80.690 346.655,80.566 346.855 C 80.442 347.056,80.511 347.170,80.719 347.110 C 80.927 347.049,83.790 349.880,87.081 353.400 C 90.372 356.920,93.861 360.454,94.833 361.253 C 95.805 362.052,97.060 363.132,97.621 363.653 C 99.278 365.190,111.139 373.989,112.213 374.479 C 112.756 374.726,113.200 375.067,113.200 375.237 C 113.200 375.407,113.565 375.662,114.010 375.803 C 115.142 376.163,118.000 378.073,118.000 378.471 C 118.000 378.652,118.272 378.800,118.604 378.800 C 118.936 378.800,120.706 379.610,122.537 380.600 C 126.276 382.622,126.400 382.659,126.400 381.742 C 126.400 381.380,127.643 378.635,129.163 375.642 C 130.683 372.649,132.425 369.210,133.035 368.000 C 133.645 366.790,135.102 363.925,136.272 361.633 C 137.442 359.341,138.400 357.258,138.400 357.005 C 138.400 356.751,139.004 355.837,139.743 354.972 C 140.481 354.107,141.724 351.960,142.505 350.200 C 143.286 348.440,145.476 344.030,147.371 340.400 C 149.266 336.770,150.937 333.530,151.085 333.200 C 151.233 332.870,151.860 331.800,152.477 330.822 C 153.095 329.844,153.600 328.754,153.600 328.399 C 153.600 328.045,154.050 327.145,154.600 326.400 C 155.150 325.655,155.600 324.702,155.600 324.284 C 155.600 323.866,155.939 323.046,156.353 322.462 C 157.565 320.753,158.800 318.419,158.800 317.837 C 158.800 317.540,159.070 317.074,159.400 316.800 C 159.730 316.526,160.000 315.988,160.000 315.605 C 160.000 315.222,160.366 314.442,160.814 313.873 C 161.262 313.303,161.831 312.244,162.078 311.519 C 162.325 310.793,162.949 309.691,163.464 309.069 C 163.979 308.447,164.400 307.570,164.400 307.120 C 164.400 306.669,165.104 305.247,165.963 303.960 C 166.823 302.672,167.844 300.759,168.231 299.709 C 168.619 298.659,169.143 297.530,169.397 297.200 C 170.037 296.367,176.400 283.684,176.400 283.241 C 176.400 283.043,177.030 281.944,177.800 280.800 C 179.648 278.053,179.597 277.710,176.869 274.523 C 175.587 273.025,174.423 271.485,174.282 271.100 C 174.141 270.715,173.847 270.400,173.630 270.400 C 173.413 270.400,172.487 269.140,171.572 267.600 C 170.657 266.060,169.737 264.800,169.527 264.800 C 169.318 264.800,169.264 264.427,169.409 263.971 C 169.564 263.482,169.439 262.868,169.102 262.471 C 168.441 261.691,166.968 257.690,166.410 255.153 C 166.197 254.189,165.755 252.230,165.427 250.800 C 163.920 244.225,165.176 221.310,166.947 223.081 C 167.110 223.243,167.133 223.090,166.999 222.741 C 166.036 220.232,171.891 209.845,177.753 203.663 C 181.754 199.443,189.832 194.674,195.800 193.007 C 197.120 192.639,198.805 192.153,199.544 191.927 C 202.740 190.951,213.705 190.705,221.700 191.431 C 223.549 191.599,224.000 191.525,224.000 191.053 C 224.000 190.730,224.600 189.326,225.334 187.933 C 226.068 186.540,231.042 176.760,236.386 166.200 C 241.731 155.640,246.711 146.081,247.452 144.959 C 248.194 143.836,248.800 142.663,248.800 142.351 C 248.800 142.040,249.250 141.123,249.800 140.314 C 250.350 139.505,250.800 138.588,250.800 138.276 C 250.800 137.965,251.340 137.031,252.000 136.200 C 252.660 135.369,253.200 134.307,253.200 133.838 C 253.200 133.369,253.650 132.323,254.200 131.514 C 254.750 130.705,255.206 129.808,255.212 129.521 C 255.219 129.235,255.668 128.280,256.210 127.400 C 256.752 126.520,257.197 125.517,257.198 125.171 C 257.199 124.825,257.735 123.835,258.389 122.971 C 259.043 122.107,259.583 121.110,259.589 120.755 C 259.595 120.400,260.140 119.431,260.800 118.600 C 261.460 117.769,262.000 116.790,262.000 116.423 C 262.000 116.056,262.450 115.145,263.000 114.400 C 263.550 113.655,264.000 112.791,264.000 112.481 C 264.000 112.171,264.434 111.081,264.964 110.059 C 265.495 109.037,266.128 107.750,266.371 107.200 C 266.614 106.650,267.411 105.255,268.142 104.100 C 268.874 102.945,269.718 101.235,270.019 100.300 C 270.320 99.365,270.678 98.510,270.815 98.400 C 271.213 98.079,272.400 95.523,272.400 94.988 C 272.400 94.718,272.702 94.251,273.071 93.949 C 273.439 93.647,274.619 91.600,275.691 89.400 C 276.764 87.200,277.891 84.950,278.196 84.400 C 278.501 83.850,279.090 82.680,279.505 81.800 C 279.919 80.920,281.310 78.238,282.595 75.841 C 283.880 73.443,285.674 69.843,286.580 67.841 C 287.487 65.838,288.690 63.390,289.253 62.400 C 292.276 57.086,297.200 47.555,297.200 47.018 C 297.200 46.678,297.377 46.400,297.594 46.400 C 297.811 46.400,298.190 45.601,298.436 44.625 C 298.681 43.648,299.224 42.540,299.641 42.163 C 300.059 41.785,300.400 41.169,300.400 40.793 C 300.400 40.417,300.940 39.431,301.600 38.600 C 302.260 37.769,302.800 36.790,302.800 36.423 C 302.800 36.056,303.250 35.145,303.800 34.400 C 304.350 33.655,304.800 32.756,304.800 32.402 C 304.800 32.049,305.001 31.559,305.246 31.314 C 305.840 30.720,306.385 29.744,308.775 25.000 C 309.884 22.800,311.146 20.370,311.580 19.600 C 312.827 17.389,313.600 15.538,313.600 14.762 C 313.600 14.369,313.780 13.936,314.000 13.800 C 314.220 13.664,314.400 13.203,314.400 12.776 C 314.400 12.349,314.578 12.000,314.795 12.000 C 315.292 12.000,317.144 9.095,317.699 7.444 C 317.929 6.760,318.622 5.440,319.238 4.511 C 320.050 3.286,320.227 2.736,319.879 2.511 C 319.023 1.955,307.579 2.017,304.600 2.593 M344.300 79.810 C 344.194 80.365,344.263 80.915,344.454 81.033 C 344.644 81.151,344.800 80.697,344.800 80.024 C 344.800 78.539,344.563 78.437,344.300 79.810 M130.104 191.197 C 132.911 191.402,135.881 191.746,136.704 191.961 C 137.527 192.177,139.100 192.571,140.200 192.838 C 141.300 193.106,142.380 193.451,142.600 193.607 C 142.820 193.762,143.518 194.014,144.152 194.165 C 145.491 194.486,152.105 197.554,152.400 197.992 C 152.510 198.155,153.140 198.566,153.800 198.906 C 157.424 200.772,157.430 200.704,152.788 211.320 C 151.230 214.884,149.785 218.212,149.579 218.715 C 149.249 219.520,149.095 219.572,148.302 219.149 C 146.477 218.175,141.625 214.909,141.777 214.757 C 141.863 214.671,141.139 214.614,140.167 214.632 C 138.710 214.658,138.400 214.536,138.400 213.932 C 138.400 213.413,138.102 213.200,137.376 213.200 C 136.804 213.200,136.460 213.026,136.597 212.805 C 136.733 212.585,136.587 212.507,136.267 212.629 C 135.952 212.751,135.043 212.578,134.249 212.246 C 131.601 211.140,118.446 211.602,115.400 212.909 C 111.528 214.570,104.400 221.768,104.400 224.017 C 104.400 224.462,104.049 225.868,103.620 227.142 C 102.191 231.383,102.027 246.855,103.366 250.995 C 103.935 252.752,104.400 254.352,104.400 254.551 C 104.400 256.604,110.406 263.262,114.086 265.289 C 121.288 269.256,138.246 267.707,143.847 262.572 C 146.453 260.182,149.988 259.568,150.343 261.443 C 150.422 261.859,151.658 264.900,153.088 268.200 C 156.910 277.016,156.955 277.164,156.105 278.110 C 153.806 280.664,142.190 286.465,140.597 285.854 C 140.319 285.748,139.751 285.899,139.335 286.190 C 138.919 286.482,137.504 286.838,136.189 286.982 C 134.875 287.126,131.851 287.528,129.469 287.875 C 125.955 288.386,124.482 288.422,121.669 288.067 C 119.761 287.827,117.030 287.515,115.600 287.375 C 112.485 287.069,109.006 286.305,105.968 285.259 C 103.869 284.536,102.001 283.653,96.825 280.940 C 93.141 279.009,84.000 269.696,84.000 267.873 C 84.000 267.550,83.735 267.184,83.410 267.059 C 82.922 266.872,81.433 264.054,79.573 259.800 C 76.684 253.192,75.112 238.330,76.547 231.200 C 76.879 229.550,77.261 227.358,77.396 226.329 C 77.618 224.630,78.687 221.039,79.578 219.000 C 81.838 213.823,82.426 212.767,82.892 213.036 C 83.172 213.197,83.272 213.187,83.116 213.013 C 82.109 211.897,91.474 200.800,93.423 200.800 C 93.740 200.800,94.000 200.616,94.000 200.392 C 94.000 199.443,104.496 193.563,105.104 194.171 C 105.225 194.291,105.880 194.048,106.561 193.630 C 107.243 193.212,108.700 192.741,109.800 192.584 C 110.900 192.427,112.138 192.122,112.552 191.907 C 113.197 191.572,119.031 191.024,123.600 190.870 C 124.370 190.845,127.297 190.991,130.104 191.197 M349.259 197.200 C 349.220 197.750,349.089 198.650,348.967 199.200 C 348.776 200.062,348.808 200.102,349.197 199.491 C 349.446 199.102,349.577 198.202,349.489 197.491 C 349.364 196.487,349.313 196.422,349.259 197.200 M207.400 211.070 C 206.520 211.387,205.187 211.681,204.437 211.723 C 203.644 211.768,202.689 212.176,202.155 212.700 C 201.650 213.195,200.976 213.600,200.658 213.600 C 199.985 213.600,194.820 219.013,194.136 220.435 C 191.035 226.883,190.438 230.010,190.389 240.071 C 190.352 247.755,190.474 248.970,191.564 251.745 L 192.015 252.890 193.030 251.394 C 193.588 250.571,194.494 248.706,195.042 247.249 C 196.205 244.157,198.907 239.091,200.258 237.469 C 200.776 236.847,201.200 235.937,201.200 235.447 C 201.200 234.957,201.650 233.945,202.200 233.200 C 202.750 232.455,203.200 231.633,203.200 231.374 C 203.200 230.735,206.314 224.829,207.027 224.115 C 207.342 223.801,207.600 223.130,207.600 222.626 C 207.600 222.122,208.140 221.031,208.800 220.200 C 209.466 219.362,210.000 218.208,210.000 217.607 C 210.000 217.011,210.360 216.198,210.800 215.800 C 211.239 215.402,212.125 214.025,212.768 212.738 L 213.936 210.400 211.468 210.447 C 210.111 210.472,208.280 210.753,207.400 211.070 M232.000 226.600 C 232.000 226.930,232.180 227.200,232.400 227.200 C 232.620 227.200,232.800 226.930,232.800 226.600 C 232.800 226.270,232.620 226.000,232.400 226.000 C 232.180 226.000,232.000 226.270,232.000 226.600 M248.292 273.442 C 248.131 273.602,248.000 274.009,248.000 274.347 C 248.000 274.797,248.118 274.842,248.445 274.515 C 248.690 274.270,248.821 273.863,248.737 273.610 C 248.652 273.357,248.452 273.281,248.292 273.442 M286.667 281.467 C 286.284 281.849,286.338 282.400,286.757 282.400 C 286.954 282.400,287.218 282.130,287.345 281.800 C 287.579 281.190,287.153 280.981,286.667 281.467 " stroke="none" fill="#0a5024" fill-rule="evenodd"></path><path id="path1" d="M305.702 1.746 C 302.538 2.401,301.899 2.959,304.807 2.526 C 307.509 2.124,318.742 2.094,319.696 2.486 C 320.326 2.745,320.283 2.935,319.255 4.486 C 318.629 5.429,317.929 6.760,317.699 7.444 C 317.144 9.095,315.292 12.000,314.795 12.000 C 314.578 12.000,314.400 12.349,314.400 12.776 C 314.400 13.203,314.220 13.664,314.000 13.800 C 313.780 13.936,313.600 14.369,313.600 14.762 C 313.600 15.538,312.827 17.389,311.580 19.600 C 311.146 20.370,309.884 22.800,308.775 25.000 C 306.385 29.744,305.840 30.720,305.246 31.314 C 305.001 31.559,304.800 32.049,304.800 32.402 C 304.800 32.756,304.350 33.655,303.800 34.400 C 303.250 35.145,302.800 36.056,302.800 36.423 C 302.800 36.790,302.260 37.769,301.600 38.600 C 300.940 39.431,300.400 40.417,300.400 40.793 C 300.400 41.169,300.059 41.785,299.641 42.163 C 299.224 42.540,298.681 43.648,298.436 44.625 C 298.190 45.601,297.811 46.400,297.594 46.400 C 297.377 46.400,297.200 46.678,297.200 47.018 C 297.200 47.555,292.276 57.086,289.253 62.400 C 288.690 63.390,287.487 65.838,286.580 67.841 C 285.674 69.843,283.880 73.443,282.595 75.841 C 281.310 78.238,279.919 80.920,279.505 81.800 C 279.090 82.680,278.501 83.850,278.196 84.400 C 277.891 84.950,276.764 87.200,275.691 89.400 C 274.619 91.600,273.439 93.647,273.071 93.949 C 272.702 94.251,272.400 94.718,272.400 94.988 C 272.400 95.523,271.213 98.079,270.815 98.400 C 270.678 98.510,270.320 99.365,270.019 100.300 C 269.718 101.235,268.874 102.945,268.142 104.100 C 267.411 105.255,266.614 106.650,266.371 107.200 C 266.128 107.750,265.495 109.037,264.964 110.059 C 264.434 111.081,264.000 112.171,264.000 112.481 C 264.000 112.791,263.550 113.655,263.000 114.400 C 262.450 115.145,262.000 116.056,262.000 116.423 C 262.000 116.790,261.460 117.769,260.800 118.600 C 260.140 119.431,259.595 120.400,259.589 120.755 C 259.583 121.110,259.043 122.107,258.389 122.971 C 257.735 123.835,257.199 124.825,257.198 125.171 C 257.197 125.517,256.752 126.520,256.210 127.400 C 255.668 128.280,255.219 129.235,255.212 129.521 C 255.206 129.808,254.750 130.705,254.200 131.514 C 253.650 132.323,253.200 133.369,253.200 133.838 C 253.200 134.307,252.660 135.369,252.000 136.200 C 251.340 137.031,250.800 137.965,250.800 138.276 C 250.800 138.588,250.350 139.505,249.800 140.314 C 249.250 141.123,248.800 142.040,248.800 142.351 C 248.800 142.663,248.194 143.836,247.452 144.959 C 246.711 146.081,241.731 155.640,236.386 166.200 C 231.042 176.760,226.068 186.540,225.334 187.933 C 224.600 189.326,224.000 190.716,224.000 191.021 C 224.000 191.463,223.331 191.539,220.700 191.397 L 217.400 191.219 220.400 191.821 C 222.050 192.152,224.060 192.369,224.866 192.304 C 225.673 192.239,226.253 192.315,226.155 192.473 C 226.057 192.631,227.134 193.118,228.548 193.555 C 233.123 194.968,244.359 201.180,244.387 202.313 C 244.394 202.594,244.673 202.930,245.006 203.058 C 245.869 203.389,247.684 205.193,248.569 206.600 C 248.984 207.260,249.982 208.610,250.786 209.600 C 251.591 210.590,253.117 213.380,254.178 215.800 C 255.240 218.220,256.237 220.380,256.396 220.600 C 260.111 225.761,258.934 255.558,254.744 262.400 C 254.542 262.730,253.822 264.170,253.144 265.600 C 252.466 267.030,251.657 268.470,251.347 268.800 C 251.036 269.130,250.231 270.120,249.558 271.000 C 247.964 273.084,242.813 278.400,242.387 278.400 C 242.206 278.400,241.819 278.634,241.529 278.919 C 241.238 279.205,239.978 280.021,238.729 280.732 C 237.480 281.443,236.400 282.158,236.329 282.319 C 236.141 282.748,227.560 285.607,223.600 286.560 C 213.386 289.020,196.066 286.733,187.236 281.758 C 185.129 280.571,183.295 279.600,183.160 279.600 C 183.025 279.600,181.056 277.712,178.786 275.405 C 174.118 270.661,173.079 270.152,176.750 274.406 C 179.604 277.714,179.658 278.039,177.800 280.800 C 177.030 281.944,176.400 283.043,176.400 283.241 C 176.400 283.684,170.037 296.367,169.397 297.200 C 169.143 297.530,168.619 298.659,168.231 299.709 C 167.844 300.759,166.823 302.672,165.963 303.960 C 165.104 305.247,164.400 306.669,164.400 307.120 C 164.400 307.570,163.979 308.447,163.464 309.069 C 162.949 309.691,162.325 310.793,162.078 311.519 C 161.831 312.244,161.262 313.303,160.814 313.873 C 160.366 314.442,160.000 315.222,160.000 315.605 C 160.000 315.988,159.730 316.526,159.400 316.800 C 159.070 317.074,158.800 317.540,158.800 317.837 C 158.800 318.419,157.565 320.753,156.353 322.462 C 155.939 323.046,155.600 323.866,155.600 324.284 C 155.600 324.702,155.150 325.655,154.600 326.400 C 154.050 327.145,153.600 328.045,153.600 328.399 C 153.600 328.754,153.095 329.844,152.477 330.822 C 151.860 331.800,151.233 332.870,151.085 333.200 C 150.937 333.530,149.266 336.770,147.371 340.400 C 145.476 344.030,143.286 348.440,142.505 350.200 C 141.724 351.960,140.481 354.107,139.743 354.972 C 139.004 355.837,138.400 356.751,138.400 357.005 C 138.400 357.258,137.442 359.341,136.272 361.633 C 135.102 363.925,133.645 366.790,133.035 368.000 C 132.425 369.210,130.683 372.649,129.163 375.642 C 127.643 378.635,126.400 381.380,126.400 381.742 C 126.400 382.660,126.279 382.623,122.491 380.575 C 119.124 378.755,117.749 378.403,119.877 379.906 C 121.313 380.920,126.040 383.272,128.500 384.195 C 129.545 384.588,130.400 385.057,130.400 385.238 C 130.400 385.420,131.165 385.794,132.100 386.070 C 133.035 386.345,134.038 386.803,134.328 387.085 C 134.619 387.368,135.564 387.713,136.428 387.851 C 137.293 387.989,138.000 388.245,138.000 388.420 C 138.000 388.595,138.675 388.948,139.500 389.204 C 140.325 389.460,142.316 390.204,143.924 390.856 C 147.595 392.346,158.786 395.233,161.258 395.329 C 162.279 395.368,163.043 395.520,162.954 395.668 C 162.690 396.105,165.197 396.722,168.328 396.990 C 169.938 397.128,171.648 397.390,172.128 397.572 C 175.775 398.954,200.259 399.120,210.502 397.833 C 218.785 396.792,232.473 393.836,233.800 392.802 C 234.020 392.631,234.964 392.364,235.898 392.210 C 236.832 392.056,237.685 391.786,237.793 391.611 C 237.902 391.435,238.668 391.164,239.496 391.009 C 240.323 390.854,241.450 390.489,242.000 390.199 C 242.550 389.910,244.530 389.094,246.400 388.387 C 248.270 387.680,250.790 386.606,252.000 385.999 C 253.210 385.392,255.045 384.593,256.077 384.223 C 257.109 383.854,258.441 383.168,259.037 382.699 C 259.633 382.230,261.181 381.346,262.477 380.733 C 263.772 380.120,266.636 378.490,268.842 377.109 C 271.047 375.729,273.206 374.400,273.641 374.156 C 274.075 373.911,274.828 373.359,275.315 372.929 C 275.802 372.500,276.650 371.851,277.200 371.487 C 280.764 369.134,285.119 365.671,289.061 362.057 C 290.414 360.815,291.989 359.477,292.561 359.081 C 293.132 358.686,293.600 358.113,293.600 357.808 C 293.600 357.503,293.915 357.152,294.300 357.027 C 294.685 356.902,295.900 355.779,297.000 354.533 C 298.713 352.591,301.021 349.997,304.946 345.600 C 305.437 345.050,306.277 343.970,306.812 343.200 C 307.346 342.430,308.216 341.316,308.744 340.724 C 309.320 340.078,309.605 339.390,309.457 339.003 C 309.320 338.649,309.373 338.460,309.574 338.584 C 310.268 339.013,315.035 332.261,317.745 327.009 C 318.428 325.684,319.119 324.504,319.278 324.386 C 319.438 324.268,319.845 323.510,320.183 322.702 C 320.521 321.893,321.317 320.413,321.951 319.412 C 322.586 318.412,323.523 316.470,324.033 315.097 C 324.544 313.723,325.195 312.362,325.480 312.072 C 325.765 311.782,326.117 311.062,326.261 310.472 C 326.405 309.882,326.855 308.773,327.261 308.006 C 327.668 307.239,328.000 306.394,328.000 306.129 C 328.000 305.863,328.341 305.050,328.758 304.323 C 330.274 301.677,335.504 286.035,337.560 278.000 C 337.813 277.010,338.743 273.451,339.627 270.092 C 341.988 261.116,344.503 247.937,344.550 244.300 C 344.572 242.595,344.706 241.515,344.849 241.900 C 345.227 242.921,345.539 241.506,346.196 235.778 C 346.497 233.150,347.196 227.490,347.749 223.200 C 350.968 198.240,352.226 124.848,349.369 128.700 C 348.935 129.285,348.917 129.104,349.255 127.600 C 350.060 124.026,347.504 92.318,346.463 92.961 C 346.300 93.062,346.239 92.529,346.327 91.779 C 346.663 88.894,345.344 80.464,344.593 80.698 C 344.419 80.752,344.311 79.492,344.351 77.898 C 344.490 72.491,337.362 35.875,335.961 34.800 C 335.818 34.690,335.570 33.970,335.410 33.200 C 333.486 23.946,326.530 8.376,322.819 5.017 C 322.368 4.609,322.000 4.024,322.000 3.716 C 322.000 1.770,311.632 0.517,305.702 1.746 M298.400 3.267 C 297.630 3.485,296.820 3.838,296.600 4.052 C 296.067 4.571,299.407 4.059,301.000 3.378 L 302.200 2.865 301.000 2.869 C 300.340 2.871,299.170 3.050,298.400 3.267 M292.839 5.022 C 292.091 5.347,291.566 5.699,291.671 5.805 C 291.891 6.025,296.000 4.866,296.000 4.585 C 296.000 4.199,294.144 4.455,292.839 5.022 M288.600 6.416 C 288.160 6.614,285.190 7.793,282.000 9.034 C 275.906 11.405,275.746 11.480,276.069 11.802 C 276.180 11.913,278.505 11.103,281.235 10.002 C 283.966 8.900,287.136 7.727,288.280 7.394 C 289.423 7.062,290.469 6.612,290.603 6.395 C 290.902 5.911,289.689 5.923,288.600 6.416 M273.300 12.488 C 272.805 12.727,272.400 13.075,272.400 13.261 C 272.400 13.757,272.834 13.657,274.400 12.800 C 275.941 11.956,274.972 11.682,273.300 12.488 M269.400 14.400 C 268.740 14.837,268.434 15.196,268.720 15.197 C 269.308 15.200,271.600 14.080,271.600 13.790 C 271.600 13.358,270.523 13.657,269.400 14.400 M264.400 16.600 C 262.970 17.349,262.020 17.970,262.290 17.981 C 262.881 18.004,268.000 15.695,268.000 15.405 C 268.000 14.936,266.849 15.318,264.400 16.600 M259.380 18.757 C 259.171 18.953,256.973 20.143,254.496 21.401 C 250.630 23.364,248.990 24.400,249.746 24.400 C 250.133 24.400,261.200 18.797,261.200 18.601 C 261.200 18.259,259.781 18.380,259.380 18.757 M247.000 25.388 C 246.340 25.929,245.558 26.378,245.262 26.386 C 244.966 26.394,243.706 26.963,242.462 27.652 C 241.218 28.340,238.400 29.890,236.200 31.096 C 228.176 35.494,221.897 39.230,222.132 39.466 C 222.315 39.648,228.091 36.516,234.400 32.812 C 236.490 31.585,240.000 29.692,242.200 28.606 C 244.400 27.520,246.290 26.514,246.400 26.371 C 246.510 26.228,247.185 25.812,247.900 25.446 C 249.268 24.745,249.533 24.399,248.700 24.402 C 248.425 24.403,247.660 24.847,247.000 25.388 M219.400 40.568 C 218.960 40.858,217.610 41.718,216.400 42.480 C 215.190 43.242,212.400 45.004,210.200 46.394 C 208.000 47.785,204.605 49.930,202.655 51.161 C 198.211 53.968,195.900 55.881,199.000 54.185 C 200.100 53.584,201.360 52.784,201.800 52.408 C 202.240 52.032,203.770 51.041,205.200 50.206 C 206.630 49.371,208.700 48.106,209.800 47.395 C 210.900 46.684,212.371 45.764,213.068 45.351 C 216.523 43.304,221.200 40.327,221.200 40.173 C 221.200 39.830,220.183 40.053,219.400 40.568 M191.600 58.433 C 189.070 60.193,186.731 61.792,186.403 61.987 C 186.075 62.181,185.908 62.442,186.033 62.566 C 186.252 62.785,195.209 56.902,196.386 55.765 C 197.823 54.378,195.836 55.486,191.600 58.433 M184.229 63.409 C 183.805 63.729,183.555 64.088,183.673 64.206 C 183.790 64.324,184.317 64.061,184.843 63.623 C 185.937 62.712,185.398 62.524,184.229 63.409 M175.562 69.511 C 166.154 76.315,166.169 76.303,166.421 76.555 C 166.609 76.742,181.860 65.900,182.971 64.789 C 184.408 63.352,181.633 65.121,175.562 69.511 M164.724 77.502 C 163.856 78.066,158.085 82.461,153.471 86.073 C 152.999 86.443,152.707 86.841,152.824 86.958 C 153.015 87.148,164.148 78.789,165.586 77.376 C 166.372 76.603,166.033 76.653,164.724 77.502 M141.900 95.428 C 137.555 99.051,134.000 102.202,134.000 102.431 C 134.000 102.660,135.551 101.570,137.446 100.008 C 147.831 91.449,150.838 88.814,150.200 88.830 C 149.980 88.836,146.245 91.805,141.900 95.428 M131.657 104.152 C 128.251 106.998,123.200 111.746,123.200 112.102 C 123.200 112.547,125.762 110.386,130.400 106.029 C 133.868 102.771,134.577 101.713,131.657 104.152 M120.549 114.301 C 117.933 116.774,117.055 118.034,119.000 116.523 C 120.978 114.986,122.603 113.270,122.335 113.002 C 122.225 112.892,121.421 113.476,120.549 114.301 M111.120 123.201 C 107.122 126.935,103.777 130.785,105.800 129.323 C 107.512 128.087,115.000 120.467,114.750 120.217 C 114.635 120.101,113.002 121.445,111.120 123.201 M101.600 133.116 C 93.888 141.122,79.122 158.856,79.693 159.426 C 79.806 159.539,81.889 157.118,84.322 154.046 C 89.549 147.444,95.027 141.034,100.514 135.100 C 104.627 130.651,105.487 129.080,101.600 133.116 M74.106 166.900 C 70.382 172.386,68.955 174.820,69.490 174.772 C 69.660 174.756,71.510 172.146,73.600 168.972 C 75.690 165.798,77.647 162.841,77.949 162.400 C 78.251 161.960,78.319 161.600,78.100 161.600 C 77.882 161.600,76.084 163.985,74.106 166.900 M68.104 176.277 C 66.789 178.165,64.296 182.830,64.497 183.030 C 64.938 183.471,66.001 182.645,66.007 181.857 C 66.010 181.386,66.450 180.280,66.985 179.400 C 68.820 176.378,69.259 175.525,69.073 175.340 C 68.971 175.238,68.535 175.659,68.104 176.277 M63.703 184.090 C 62.917 185.065,59.957 191.272,60.089 191.668 C 60.162 191.887,61.176 190.236,62.342 187.998 C 64.251 184.334,64.817 182.710,63.703 184.090 M123.100 191.089 C 123.815 191.178,124.985 191.178,125.700 191.089 C 126.415 191.001,125.830 190.928,124.400 190.928 C 122.970 190.928,122.385 191.001,123.100 191.089 M210.691 191.089 C 211.401 191.177,212.661 191.179,213.491 191.092 C 214.321 191.005,213.740 190.933,212.200 190.931 C 210.660 190.929,209.981 191.000,210.691 191.089 M113.896 191.584 C 111.360 192.076,111.650 192.527,114.330 192.259 C 117.235 191.968,119.127 191.202,116.800 191.258 C 116.030 191.277,114.723 191.423,113.896 191.584 M132.400 191.798 C 133.830 192.109,135.540 192.360,136.200 192.356 C 138.464 192.343,135.922 191.674,132.742 191.445 L 129.800 191.234 132.400 191.798 M201.096 191.584 C 198.522 192.083,198.867 192.505,201.600 192.201 C 206.403 191.666,207.816 191.287,205.000 191.290 C 203.680 191.291,201.923 191.423,201.096 191.584 M108.463 192.798 C 106.547 193.251,105.793 194.097,107.613 193.752 C 109.501 193.394,111.677 192.462,110.600 192.474 C 110.160 192.478,109.198 192.624,108.463 192.798 M139.000 192.986 C 140.627 193.691,143.114 194.191,142.600 193.710 C 142.138 193.276,139.171 192.384,138.354 192.433 C 138.049 192.451,138.340 192.699,139.000 192.986 M194.800 193.235 C 191.881 194.266,189.888 195.221,190.137 195.470 C 190.344 195.677,198.400 192.836,198.400 192.556 C 198.400 192.213,196.885 192.499,194.800 193.235 M58.832 193.939 C 58.595 194.384,58.407 194.984,58.416 195.274 C 58.425 195.563,58.709 195.289,59.047 194.665 C 59.386 194.040,59.573 193.440,59.464 193.330 C 59.354 193.221,59.070 193.495,58.832 193.939 M102.127 195.181 C 99.261 196.508,93.815 199.948,94.111 200.244 C 94.222 200.355,95.287 199.823,96.477 199.062 C 97.667 198.300,100.117 196.996,101.921 196.164 C 103.724 195.331,105.200 194.504,105.200 194.325 C 105.200 193.831,104.810 193.940,102.127 195.181 M144.600 194.822 C 145.480 195.238,146.470 195.569,146.800 195.557 C 147.130 195.545,146.680 195.195,145.800 194.778 C 144.920 194.362,143.930 194.031,143.600 194.043 C 143.270 194.055,143.720 194.405,144.600 194.822 M147.600 195.790 C 147.600 196.106,150.060 197.274,150.274 197.059 C 150.384 196.949,149.927 196.576,149.257 196.229 C 147.988 195.573,147.600 195.470,147.600 195.790 M186.403 197.018 C 184.210 198.199,181.341 200.409,182.600 199.947 C 183.329 199.679,189.600 195.933,189.600 195.765 C 189.600 195.400,188.883 195.681,186.403 197.018 M349.197 199.491 C 348.808 200.102,348.776 200.062,348.967 199.200 C 349.089 198.650,349.220 197.750,349.259 197.200 C 349.313 196.422,349.364 196.487,349.489 197.491 C 349.577 198.202,349.446 199.102,349.197 199.491 M57.241 197.523 C 56.970 198.030,56.820 198.659,56.907 198.921 C 56.997 199.191,57.279 198.999,57.559 198.477 C 57.830 197.970,57.980 197.341,57.893 197.079 C 57.803 196.809,57.521 197.001,57.241 197.523 M151.305 197.876 C 151.677 198.248,152.115 198.418,152.279 198.254 C 152.443 198.091,152.312 197.789,151.988 197.584 C 151.015 196.969,150.582 197.153,151.305 197.876 M152.800 198.779 C 152.800 198.999,153.340 199.459,154.000 199.800 C 154.660 200.141,155.200 200.241,155.200 200.021 C 155.200 199.801,154.660 199.341,154.000 199.000 C 153.340 198.659,152.800 198.559,152.800 198.779 M56.051 200.518 C 55.170 202.733,55.150 203.899,56.024 202.076 C 56.479 201.128,56.771 200.138,56.673 199.876 C 56.575 199.614,56.295 199.903,56.051 200.518 M179.668 201.814 C 178.558 202.812,176.888 204.567,175.956 205.714 C 174.763 207.182,175.407 206.677,178.131 204.008 C 180.259 201.922,182.000 200.167,182.000 200.108 C 182.000 199.800,181.508 200.161,179.668 201.814 M155.780 201.087 C 155.967 201.712,155.206 203.956,153.212 208.655 C 151.654 212.329,150.436 215.508,150.506 215.719 C 150.637 216.111,155.153 206.167,156.226 203.125 C 156.761 201.610,156.755 201.387,156.166 200.824 C 155.571 200.254,155.537 200.277,155.780 201.087 M90.423 203.043 C 87.998 205.288,84.529 209.410,83.644 211.100 C 82.819 212.674,83.495 212.077,85.455 209.500 C 86.502 208.125,88.703 205.605,90.348 203.900 C 93.846 200.274,93.884 199.838,90.423 203.043 M54.070 205.854 C 53.545 207.819,53.735 208.769,54.330 207.155 C 54.967 205.430,55.221 204.000,54.891 204.000 C 54.712 204.000,54.343 204.834,54.070 205.854 M172.460 210.100 C 170.712 212.443,169.438 214.771,169.739 215.072 C 169.847 215.181,170.194 214.849,170.508 214.335 C 170.823 213.821,171.830 212.185,172.746 210.700 C 174.740 207.470,174.615 207.210,172.460 210.100 M52.791 209.423 C 52.577 209.986,52.303 211.201,52.181 212.123 L 51.960 213.800 52.563 212.495 C 53.258 210.990,53.809 208.400,53.435 208.400 C 53.295 208.400,53.005 208.861,52.791 209.423 M211.105 210.283 C 211.602 210.379,212.322 210.375,212.705 210.275 C 213.087 210.175,212.680 210.096,211.800 210.101 C 210.920 210.105,210.607 210.187,211.105 210.283 M205.328 210.939 C 203.589 211.418,202.650 212.003,203.633 211.995 C 204.410 211.989,208.430 210.904,208.708 210.625 C 209.072 210.261,207.136 210.441,205.328 210.939 M213.862 210.671 C 213.713 210.821,213.157 211.860,212.626 212.982 C 212.096 214.103,211.288 215.359,210.831 215.772 C 210.374 216.186,210.000 217.011,210.000 217.607 C 210.000 218.208,209.466 219.362,208.800 220.200 C 208.140 221.031,207.600 222.122,207.600 222.626 C 207.600 223.130,207.342 223.801,207.027 224.115 C 206.314 224.829,203.200 230.735,203.200 231.374 C 203.200 231.633,202.750 232.455,202.200 233.200 C 201.650 233.945,201.200 234.957,201.200 235.447 C 201.200 235.937,200.776 236.847,200.258 237.469 C 198.907 239.091,196.205 244.157,195.042 247.249 C 194.494 248.706,193.592 250.566,193.038 251.383 L 192.030 252.868 191.448 251.534 C 190.601 249.595,190.672 251.103,191.547 253.646 C 192.198 255.539,193.055 257.315,195.112 261.033 C 196.350 263.271,201.570 266.782,204.907 267.620 C 205.956 267.883,206.911 268.256,207.030 268.449 C 207.328 268.931,214.203 268.892,216.845 268.394 C 221.352 267.545,228.406 263.228,229.342 260.748 C 229.580 260.116,229.889 259.600,230.028 259.600 C 230.505 259.600,232.795 254.149,233.652 250.973 C 235.166 245.363,234.781 229.374,233.037 225.456 C 232.729 224.765,232.016 223.156,231.452 221.880 C 230.149 218.934,228.846 217.097,228.227 217.334 C 227.941 217.444,227.756 217.178,227.773 216.680 C 227.788 216.218,227.437 215.651,226.993 215.420 C 226.549 215.189,225.815 214.626,225.362 214.169 C 223.175 211.963,215.044 209.490,213.862 210.671 M119.044 211.358 C 117.771 211.720,118.881 211.800,125.143 211.800 C 129.354 211.800,132.799 211.688,132.799 211.552 C 132.801 210.752,121.726 210.596,119.044 211.358 M114.900 212.488 C 113.393 213.215,113.897 213.654,115.479 212.993 C 116.293 212.653,117.043 212.290,117.146 212.187 C 117.505 211.828,115.793 212.058,114.900 212.488 M135.200 212.600 C 135.970 212.897,136.960 213.145,137.400 213.152 C 137.840 213.159,137.480 212.905,136.600 212.588 C 134.582 211.861,133.309 211.872,135.200 212.600 M201.300 212.488 C 200.805 212.727,200.400 213.075,200.400 213.261 C 200.400 213.823,201.057 213.646,202.056 212.813 C 203.085 211.956,202.725 211.801,201.300 212.488 M82.230 213.300 C 81.315 214.699,79.910 218.043,80.140 218.273 C 80.343 218.476,82.085 215.280,82.810 213.375 C 83.274 212.154,83.002 212.119,82.230 213.300 M109.335 216.490 C 106.436 219.300,104.496 221.829,104.916 222.249 C 105.030 222.363,105.672 221.658,106.343 220.682 C 107.015 219.707,108.854 217.714,110.431 216.254 C 112.007 214.794,113.076 213.600,112.806 213.600 C 112.536 213.600,110.974 214.900,109.335 216.490 M138.400 214.174 C 138.400 214.544,138.545 214.758,138.722 214.648 C 138.899 214.539,139.735 214.605,140.578 214.795 C 141.896 215.092,142.033 215.062,141.551 214.579 C 140.620 213.649,138.400 213.363,138.400 214.174 M196.977 215.990 C 194.734 218.277,193.337 220.271,193.715 220.648 C 193.812 220.745,194.217 220.324,194.615 219.712 C 195.014 219.101,196.416 217.475,197.733 216.100 C 199.050 214.725,199.946 213.600,199.724 213.600 C 199.502 213.600,198.266 214.675,196.977 215.990 M51.070 215.973 C 50.702 217.168,50.418 218.518,50.440 218.973 C 50.462 219.428,50.827 218.724,51.252 217.408 C 51.676 216.093,51.960 214.743,51.882 214.408 C 51.804 214.074,51.439 214.778,51.070 215.973 M143.200 215.751 C 143.200 215.974,146.608 218.241,148.325 219.160 C 149.152 219.603,149.272 219.524,149.835 218.177 C 150.535 216.502,150.278 215.752,149.551 217.348 C 148.944 218.681,148.937 218.680,145.814 216.963 C 144.376 216.173,143.200 215.628,143.200 215.751 M168.879 216.253 C 168.297 217.340,166.392 223.158,166.424 223.751 C 166.437 223.998,167.159 222.405,168.028 220.211 C 169.471 216.567,169.981 214.193,168.879 216.253 M79.248 219.726 C 78.599 221.358,78.728 221.992,79.441 220.676 C 79.776 220.058,79.971 219.338,79.873 219.076 C 79.775 218.814,79.494 219.107,79.248 219.726 M49.888 220.515 C 49.507 221.507,49.060 225.200,49.320 225.200 C 49.629 225.200,50.497 220.890,50.304 220.311 C 50.208 220.025,50.045 220.106,49.888 220.515 M192.605 222.390 C 192.246 223.085,192.032 223.867,192.131 224.127 C 192.230 224.387,192.611 223.906,192.979 223.057 C 193.798 221.164,193.508 220.645,192.605 222.390 M78.068 223.273 C 77.354 225.579,77.078 227.438,77.515 227.000 C 77.952 226.563,78.920 222.387,78.648 222.115 C 78.556 222.022,78.295 222.543,78.068 223.273 M103.576 225.045 C 103.010 226.510,102.620 228.800,102.936 228.800 C 103.283 228.800,104.519 224.385,104.248 224.115 C 104.124 223.991,103.822 224.409,103.576 225.045 M165.671 226.678 C 165.075 229.412,164.808 232.158,165.178 231.748 C 165.558 231.328,166.548 225.214,166.279 224.946 C 166.175 224.842,165.902 225.622,165.671 226.678 M191.486 225.073 C 191.078 225.758,190.306 229.916,190.488 230.446 C 190.593 230.751,190.983 229.672,191.356 228.050 C 191.964 225.396,192.017 224.181,191.486 225.073 M232.800 226.600 C 232.800 226.930,232.620 227.200,232.400 227.200 C 232.180 227.200,232.000 226.930,232.000 226.600 C 232.000 226.270,232.180 226.000,232.400 226.000 C 232.620 226.000,232.800 226.270,232.800 226.600 M48.249 228.900 C 48.114 229.395,47.913 231.060,47.802 232.600 C 47.551 236.083,48.200 234.476,48.617 230.583 C 48.892 228.009,48.713 227.190,48.249 228.900 M101.859 233.060 C 101.506 237.228,101.573 245.046,101.977 247.000 C 102.241 248.277,102.321 247.753,102.372 244.400 C 102.408 242.090,102.537 237.905,102.660 235.100 C 102.906 229.485,102.293 227.924,101.859 233.060 M76.250 232.450 C 75.851 234.443,75.973 245.739,76.400 246.400 C 76.658 246.799,76.790 244.348,76.794 239.100 C 76.800 231.176,76.714 230.128,76.250 232.450 M189.900 232.533 C 189.421 233.703,189.525 245.435,190.011 244.949 C 190.266 244.694,190.379 242.141,190.311 238.169 C 190.250 234.666,190.065 232.130,189.900 232.533 M46.919 237.853 C 46.414 239.667,46.602 267.189,47.129 268.600 C 47.494 269.577,47.540 269.093,47.376 266.000 C 46.975 258.436,46.916 248.480,47.239 242.818 C 47.574 236.960,47.498 235.777,46.919 237.853 M164.514 240.200 C 164.517 241.300,164.595 241.703,164.687 241.095 C 164.779 240.486,164.777 239.586,164.682 239.095 C 164.587 238.603,164.511 239.100,164.514 240.200 M164.948 248.000 C 165.224 250.792,165.937 253.796,166.250 253.484 C 166.481 253.252,165.236 245.894,164.916 245.604 C 164.792 245.492,164.806 246.570,164.948 248.000 M293.075 249.207 C 302.688 253.940,302.183 264.607,291.830 275.471 C 291.373 275.950,290.820 276.532,290.600 276.765 C 290.380 276.997,289.165 278.161,287.900 279.350 C 284.243 282.790,284.258 282.800,293.600 282.800 L 301.600 282.800 301.600 287.400 L 301.600 292.000 285.955 292.000 L 270.309 292.000 270.462 287.875 C 270.640 283.054,270.429 283.426,276.600 277.050 C 281.853 271.622,283.200 270.048,283.200 269.339 C 283.200 269.016,283.397 268.874,283.638 269.024 C 283.879 269.173,284.554 268.756,285.138 268.098 C 293.072 259.153,287.162 252.854,275.825 258.172 L 272.650 259.662 271.974 258.766 C 271.285 257.852,269.200 252.832,269.200 252.087 C 269.200 251.431,272.358 249.765,275.400 248.815 C 281.338 246.961,288.850 247.127,293.075 249.207 M102.913 251.300 C 103.196 252.994,103.964 254.969,104.235 254.698 C 104.488 254.445,103.243 250.000,102.919 250.000 C 102.796 250.000,102.793 250.585,102.913 251.300 M77.466 253.000 C 77.597 253.880,77.945 255.140,78.238 255.800 L 78.773 257.000 78.534 255.400 C 78.403 254.520,78.055 253.260,77.762 252.600 L 77.227 251.400 77.466 253.000 M104.400 255.761 C 104.400 258.289,114.162 267.572,115.457 266.276 C 115.578 266.155,114.895 265.657,113.939 265.170 C 111.095 263.723,108.909 261.676,106.753 258.446 C 104.322 254.803,104.400 254.892,104.400 255.761 M166.400 255.318 C 166.400 255.577,167.657 259.368,168.468 261.555 C 169.378 264.010,169.126 261.715,168.181 258.941 C 167.244 256.191,166.400 254.475,166.400 255.318 M79.005 258.200 C 79.144 258.860,79.424 259.571,79.628 259.780 C 80.231 260.396,80.040 259.112,79.363 258.000 L 78.754 257.000 79.005 258.200 M145.900 261.305 C 143.787 262.486,143.057 263.200,143.960 263.200 C 144.158 263.200,145.273 262.558,146.439 261.774 L 148.557 260.348 149.270 261.274 C 149.662 261.783,149.986 262.331,149.991 262.491 C 149.996 262.651,151.350 265.923,153.000 269.761 C 154.650 273.599,156.000 276.925,156.000 277.151 C 156.000 277.690,152.996 279.973,150.650 281.217 C 148.850 282.172,148.094 283.030,149.500 282.522 C 150.655 282.106,155.348 278.980,156.105 278.124 C 156.957 277.160,156.913 277.015,153.045 268.113 C 151.590 264.765,150.400 261.786,150.400 261.493 C 150.400 259.714,148.860 259.650,145.900 261.305 M80.224 261.300 C 80.663 262.725,81.639 264.494,81.863 264.270 C 82.110 264.024,80.549 260.400,80.196 260.400 C 80.058 260.400,80.071 260.805,80.224 261.300 M141.465 263.847 C 140.840 264.186,140.418 264.552,140.527 264.661 C 140.741 264.874,143.200 263.705,143.200 263.390 C 143.200 263.063,142.640 263.210,141.465 263.847 M169.373 264.044 C 169.234 264.269,169.382 264.666,169.702 264.927 C 170.022 265.187,170.959 266.536,171.785 267.923 C 173.801 271.312,173.994 270.823,172.116 267.088 C 170.610 264.095,169.858 263.259,169.373 264.044 M82.000 265.156 C 82.000 265.583,83.568 267.522,83.587 267.119 C 83.613 266.560,82.664 264.800,82.336 264.800 C 82.151 264.800,82.000 264.960,82.000 265.156 M137.639 265.422 C 136.891 265.747,136.380 266.113,136.504 266.237 C 136.627 266.360,137.509 266.103,138.464 265.664 C 140.455 264.750,139.699 264.528,137.639 265.422 M116.220 266.757 C 116.676 267.186,120.481 268.017,121.720 267.958 C 122.204 267.936,121.250 267.583,119.600 267.175 C 116.115 266.313,115.692 266.261,116.220 266.757 M132.000 267.031 L 130.200 267.583 132.324 267.448 C 133.491 267.374,134.652 267.108,134.904 266.856 C 135.521 266.239,134.351 266.309,132.000 267.031 M84.018 268.130 C 83.930 269.753,94.195 279.946,96.900 280.922 C 98.143 281.371,97.658 280.874,94.700 278.673 C 91.883 276.576,88.549 273.282,85.518 269.600 C 84.703 268.610,84.028 267.949,84.018 268.130 M47.656 273.000 C 47.659 273.880,47.912 275.320,48.219 276.200 L 48.776 277.800 48.551 275.435 C 48.259 272.368,47.648 270.705,47.656 273.000 M248.445 274.515 C 248.118 274.842,248.000 274.797,248.000 274.347 C 248.000 274.009,248.131 273.602,248.292 273.442 C 248.452 273.281,248.652 273.357,248.737 273.610 C 248.821 273.863,248.690 274.270,248.445 274.515 M49.256 281.800 C 49.259 282.460,49.508 283.720,49.809 284.600 L 50.356 286.200 50.122 284.200 C 49.823 281.630,49.248 280.039,49.256 281.800 M98.200 281.537 C 99.449 282.822,106.227 285.569,110.725 286.614 C 115.717 287.773,115.168 287.224,109.773 285.661 C 107.588 285.028,104.630 284.011,103.200 283.401 C 98.355 281.332,97.799 281.125,98.200 281.537 M287.345 281.800 C 287.101 282.434,286.400 282.632,286.400 282.067 C 286.400 281.644,286.837 281.200,287.254 281.200 C 287.431 281.200,287.471 281.470,287.345 281.800 M146.800 283.162 C 146.470 283.348,145.030 283.904,143.600 284.397 C 141.032 285.282,139.748 286.000,140.733 286.000 C 141.401 286.000,147.704 283.588,148.180 283.150 C 148.671 282.698,147.608 282.707,146.800 283.162 M135.600 286.630 L 133.800 287.181 136.200 286.956 C 137.520 286.833,138.771 286.567,138.980 286.366 C 139.530 285.836,137.735 285.976,135.600 286.630 M122.495 288.100 C 124.261 288.357,125.985 288.356,127.495 288.097 C 129.604 287.736,129.374 287.703,124.800 287.706 C 119.963 287.709,119.888 287.721,122.495 288.100 M50.800 289.057 C 50.800 289.711,51.059 290.596,51.375 291.024 C 51.888 291.717,51.907 291.608,51.553 290.011 C 51.067 287.819,50.800 287.481,50.800 289.057 M52.000 293.751 C 52.000 294.494,53.201 297.332,53.422 297.111 C 53.617 296.916,52.420 293.200,52.162 293.200 C 52.073 293.200,52.000 293.448,52.000 293.751 M53.708 299.038 C 54.044 300.707,54.787 302.546,55.029 302.304 C 55.340 301.994,54.364 298.425,53.888 298.131 C 53.622 297.966,53.558 298.289,53.708 299.038 M55.200 303.265 C 55.200 304.101,57.518 309.689,58.076 310.198 C 58.578 310.655,58.522 310.460,56.913 306.200 C 55.794 303.237,55.200 302.219,55.200 303.265 M58.400 311.193 C 58.400 311.820,61.438 318.120,62.165 319.000 C 62.968 319.972,62.575 318.925,60.253 313.900 C 58.914 311.002,58.400 310.252,58.400 311.193 M62.803 320.456 C 62.800 321.154,64.366 323.277,64.384 322.600 C 64.390 322.380,64.037 321.660,63.600 321.000 C 63.083 320.219,62.804 320.029,62.803 320.456 M64.413 323.281 C 64.387 323.840,65.336 325.600,65.664 325.600 C 65.849 325.600,66.000 325.440,66.000 325.244 C 66.000 324.817,64.432 322.878,64.413 323.281 M66.013 326.081 C 65.987 326.640,66.936 328.400,67.264 328.400 C 67.449 328.400,67.600 328.240,67.600 328.044 C 67.600 327.617,66.032 325.678,66.013 326.081 M67.622 328.974 C 67.592 329.489,71.328 335.188,71.700 335.195 C 71.865 335.198,72.000 335.022,72.000 334.803 C 72.000 334.447,71.471 333.680,68.522 329.765 C 68.039 329.124,67.634 328.768,67.622 328.974 M72.000 335.865 C 72.000 338.015,95.847 364.400,97.791 364.400 C 98.341 364.400,98.067 364.009,96.772 362.950 C 91.832 358.907,79.289 345.160,74.367 338.392 C 72.429 335.729,72.000 335.270,72.000 335.865 M98.801 365.065 C 98.803 365.746,109.793 373.940,110.182 373.551 C 110.350 373.383,108.111 371.636,100.330 365.865 C 99.488 365.241,98.800 364.881,98.801 365.065 M111.200 374.395 C 111.200 374.744,112.459 375.600,112.974 375.600 C 113.582 375.600,113.085 374.876,112.200 374.473 C 111.629 374.212,111.200 374.179,111.200 374.395 M113.600 375.913 C 113.601 376.293,117.601 378.532,117.845 378.288 C 117.949 378.184,117.351 377.676,116.517 377.159 C 114.604 375.974,113.600 375.545,113.600 375.913 " stroke="none" fill="#16a34a" fill-rule="evenodd"></path></g></svg>